# xmcd
#
# Track frame offsets: 
#        150
#        14272
#        24317
#        36195
#        47545
#        59932
#        74620
#        87995
#        105172
#        117112
#        129660
#        141060
#        151182
#        163377
#        178962
#        192500
#        200945
#        209950
#        221705
#        235250
#
# Disc length: 3319 seconds
#
# Revision: 0
# Processed by: cddbd v1.5.2PL0 Copyright (c) Steve Scherf et al.
# Submitted via: ExactAudioCopy v0.95a5
#
DISCID=380cf514
DTITLE=Various Artist - Antaa humpan soida 2
DYEAR=1992
DGENRE=Comedy
TTITLE0=Katupoikien laulu
TTITLE1=Abu Hassanin vaimot
TTITLE2=Suurin onni, lyhyin onni
TTITLE3=Kulkukauppias
TTITLE4=Muistan Ali-Baban
TTITLE5=Keinussa kesällä kerran
TTITLE6=Riemuhumppa
TTITLE7=Limperin muorin humppa
TTITLE8=Kissa vieköön
TTITLE9=Suhmuran Santra
TTITLE10=Irja
TTITLE11=Paula
TTITLE12=Marie, Marie
TTITLE13=Marusja
TTITLE14=Kyllikki
TTITLE15=Jazz-tyttö
TTITLE16=Katariinan kamarissa
TTITLE17=Karjalan Marjaana
TTITLE18=Onni jonka annoin pois
TTITLE19=Aila
EXTD=
EXTT0=
EXTT1=
EXTT2=
EXTT3=
EXTT4=
EXTT5=
EXTT6=
EXTT7=
EXTT8=
EXTT9=
EXTT10=
EXTT11=
EXTT12=
EXTT13=
EXTT14=
EXTT15=
EXTT16=
EXTT17=
EXTT18=
EXTT19=
PLAYORDER=
